<svg xmlns="http://www.w3.org/2000/svg" viewBox="0 0 1024 1027.32"><defs><style>.cls-1{fill:#59a59e;}.cls-2{fill:#fff;}.cls-3{fill:#f2f2f2;}.cls-4{fill:#6b6b6b;}.cls-5{fill:none;stroke:#dbdbdb;stroke-linejoin:round;stroke-width:0.25px;}</style></defs><title>Stitch1_Test</title><g id="Background"><rect class="cls-1" y="3.32" width="1024" height="1024" rx="184" ry="184"/></g><g id="Thread_2" data-name="Thread 2"><path class="cls-2" d="M827.74,18.78c1.07,2.65,2.12,5.55,3.08,8.7.32,1.49.59,3,.82,4.65A68.75,68.75,0,0,1,832,48.55a103.63,103.63,0,0,0-1.85-15.2c-.5-2.54-1.07-5-1.69-7.23-.43-2.46-1-4.76-1.55-6.89a82.61,82.61,0,0,0-2.81-8.34A84.8,84.8,0,0,1,827.74,18.78Z" transform="translate(0 3.32)"/><path class="cls-2" d="M820.05,2.18c-1-1.85-1.79-3.22-2.35-4.13l-.82-1.35L817.79-2c.61.87,1.51,2.19,2.63,4a81.06,81.06,0,0,1,8,16.8,73.84,73.84,0,0,1,2.39,8.72c-1-3.15-2-6.05-3.08-8.7a84.8,84.8,0,0,0-3.65-7.89A86.18,86.18,0,0,0,820.05,2.18Z" transform="translate(0 3.32)"/><path class="cls-3" d="M826.35,19.31c-2.87-8.23-6.14-14.15-8.85-17.75a25.2,25.2,0,0,0-3.41-3.8c-.65-.57-1.09-.89-1.27-1a13.42,13.42,0,0,1,1.33.94,25.65,25.65,0,0,1,3.66,3.63,55.3,55.3,0,0,1,6.28,9.58,82.61,82.61,0,0,1,2.81,8.34c.58,2.13,1.12,4.43,1.55,6.89Q827.46,22.49,826.35,19.31Z" transform="translate(0 3.32)"/><path class="cls-3" d="M812.73-3.32l.09.06Z" transform="translate(0 3.32)"/><path class="cls-2" d="M796.14,105.58c-2.74,2-5.61,4-8.58,5.84-1.1.68-1.87,1.14-3,1.74s-2.15,1.13-3.22,1.65l-.89.4c-2.05.18-4.13.29-6.21.35-2.64.07-5.31,0-8-.06l3.61-4.9c.8-.2,1.59-.42,2.37-.65a57.63,57.63,0,0,0,5.45-1.94A76.28,76.28,0,0,0,796.14,105.58Z" transform="translate(0 3.32)"/><path class="cls-3" d="M787.56,111.42c3-1.87,5.84-3.81,8.58-5.84,1.63-.43,3.23-.92,4.78-1.49a44.32,44.32,0,0,0,19.69-13.72,50,50,0,0,0,9.45-19.88,77.52,77.52,0,0,0,2-19.86c0-.7,0-1.39-.07-2.08a68.75,68.75,0,0,0-.35-16.42c-.23-1.61-.5-3.16-.82-4.65q.79,2.58,1.5,5.38a103.48,103.48,0,0,1,2.86,17.62,80.36,80.36,0,0,1-1,20.89,54.69,54.69,0,0,1-9.39,22.18,47.77,47.77,0,0,1-9.34,9.52,53.12,53.12,0,0,1-12.17,7,77.21,77.21,0,0,1-22.75,5.19l.89-.4c1.07-.52,2.14-1,3.22-1.65S786.46,112.1,787.56,111.42Z" transform="translate(0 3.32)"/><path class="cls-2" d="M796.14,105.58A76.28,76.28,0,0,1,777.71,108l.5-.2c1-.42,1.91-.84,2.78-1.28s2-1,2.79-1.48c3.71-2.09,7.25-4.3,10.58-6.63A98.19,98.19,0,0,0,811.69,83.1a73.68,73.68,0,0,0,11.46-17.27,65,65,0,0,0,6.1-33.43c-.17-2.19-.45-4.29-.8-6.28.62,2.28,1.19,4.69,1.69,7.23A103.63,103.63,0,0,1,832,48.55c0,.07,0,.14,0,.21a67.75,67.75,0,0,1-4.75,18.86,78.8,78.8,0,0,1-11.24,19,101.62,101.62,0,0,1-17.59,17.21C797.65,104.45,796.9,105,796.14,105.58Z" transform="translate(0 3.32)"/><path class="cls-4" d="M769.05,72.35c10.53,7.31,13.92,20.49,7.52,29.18L771.84,108a145.91,145.91,0,0,1-22.05-2.63L760.29,90a4,4,0,0,0-1-5.56l-8-5.5a4,4,0,0,0-5.56,1l-14.38,20.93-2.27-.65-8-2.39c-2.68-.8-5.47-1.57-8.23-2.37l-1-.27,17.44-26.61c5.92-9,19.45-10.44,30-3.12Z" transform="translate(0 3.32)"/><path class="cls-3" d="M772.26,110c-.78.23-1.57.45-2.37.65l2-2.65c.8,0,1.59.06,2.38.07,1.17,0,2.33,0,3.49,0A57.63,57.63,0,0,1,772.26,110Z" transform="translate(0 3.32)"/><path class="cls-3" d="M771.84,108l-2,2.65a84.46,84.46,0,0,1-24.45,2.1l-.7,0,5-7.34A145.91,145.91,0,0,0,771.84,108Z" transform="translate(0 3.32)"/><path class="cls-2" d="M774.68,117.52a73.73,73.73,0,0,1-12.06,3l3.66-5c2.68.11,5.35.13,8,.06,2.08-.06,4.16-.17,6.21-.35C778.6,116.07,776.66,116.84,774.68,117.52Z" transform="translate(0 3.32)"/><path class="cls-2" d="M766.28,115.5l-3.66,5a103.47,103.47,0,0,1-17.41,1.22q-3.26,0-6.53-.21l5.74-8.34A164.5,164.5,0,0,0,766.28,115.5Z" transform="translate(0 3.32)"/><path class="cls-4" d="M762.62,120.47,507.48,466.88c-4.74-2.51-9.4-5.17-14-7.94-4.77-2.92-9.45-6-14-9.2l218.9-334c5.25,1.07,10.46,2,15.62,2.9,1.55.25,3.09.5,4.63.73l-21,30.6a4,4,0,0,0,1,5.56l8,5.5a4,4,0,0,0,5.56-1l26.47-38.51q3.27.18,6.53.21A103.47,103.47,0,0,0,762.62,120.47Z" transform="translate(0 3.32)"/><path class="cls-2" d="M745.44,112.7a84.46,84.46,0,0,0,24.45-2.1l-3.61,4.9a164.5,164.5,0,0,1-21.86-2.36l.32-.48Z" transform="translate(0 3.32)"/><path class="cls-3" d="M749.79,105.32l-5,7.34q-2.26-.1-4.56-.3c-4.5-.85-9-1.87-13.57-3l-.92-.23,5.63-8.18q6.66,1.88,13.2,3.31Q747.16,104.82,749.79,105.32Z" transform="translate(0 3.32)"/><path class="cls-2" d="M744.74,112.66l-.32.48-1.61-.29-2.63-.49Q742.48,112.56,744.74,112.66Z" transform="translate(0 3.32)"/><path class="cls-2" d="M744.42,113.14l-5.74,8.34c-6.6-.35-13.27-1.12-20-2.12l6.17-9c5.21.89,10.33,1.57,15.35,2l2.63.49Z" transform="translate(0 3.32)"/><path class="cls-4" d="M731.32,100.94l-5.63,8.18c-5.06-1.24-10.23-2.46-15.39-3.61l-4.53-1,6.06-9.25,1,.27c2.76.8,5.55,1.57,8.23,2.37l8,2.39Z" transform="translate(0 3.32)"/><path class="cls-4" d="M724.83,110.37l-6.17,9c-1.54-.23-3.08-.48-4.63-.73-5.16-.85-10.37-1.83-15.62-2.9l6.21-9.47q5.67,1.32,11.23,2.45C718.87,109.32,721.87,109.88,724.83,110.37Z" transform="translate(0 3.32)"/><path class="cls-2" d="M715.05,589.73c1.23,1.78,2.45,3.56,3.64,5.35q-6.88-6.5-14.27-12.47a302.25,302.25,0,0,0-44.66-29.78c-31.52-17.32-65.75-29.88-100.49-39l-4.64-1.2c-6.93-2-13.91-4-20.91-6.17-.66-.21-1.32-.45-2-.68a269.41,269.41,0,0,1-26.64-11.05q-6.71-3.19-13.19-6.75l13.2-17.92c10,3.71,20.15,7,30.49,10.19q5.91,1.79,11.9,3.52c1.74.55,3.5,1.08,5.25,1.6s3.64,1,5.46,1.51l2,.58c8.31,2.4,16.71,4.8,25.16,7.46,16.87,5.27,34,11.65,50.3,20.43a199.87,199.87,0,0,1,44.53,32.72A277,277,0,0,1,715.05,589.73Z" transform="translate(0 3.32)"/><path class="cls-4" d="M715.85,108.71q-5.55-1.12-11.23-2.45l1.15-1.75,4.53,1c5.16,1.15,10.33,2.37,15.39,3.61l-.86,1.25C721.87,109.88,718.87,109.32,715.85,108.71Z" transform="translate(0 3.32)"/><path class="cls-3" d="M711.83,95.26l-6.06,9.25c-10.45-2.26-21.27-4.31-32.41-6.05-7.36-1.9-14.88-3.85-22.58-5.73-23.1-5.68-47.89-10.88-74.4-13-6.27-.49-12.63-.81-19.07-.91.46-.06.93-.1,1.39-.15,28.82-3,56.44-1.54,82.19,1.86,12.89,1.65,25.33,3.91,37.32,6.47Q695.67,90.71,711.83,95.26Z" transform="translate(0 3.32)"/><path class="cls-2" d="M704.62,106.26l-6.21,9.47c-16.25-3.28-33-7.35-50.37-11-23-4.85-47.24-9.25-72.61-10.53l-1.3-.06q3.39-.31,6.78-.57c6.68-.45,13.31-.7,19.88-.79s13.08,0,19.52.29,12.8.65,19.07,1.22c11.63,1,23,2.45,34,4.18C684.11,101.24,694.51,103.93,704.62,106.26Z" transform="translate(0 3.32)"/><path class="cls-2" d="M650.78,92.73c7.7,1.88,15.22,3.83,22.58,5.73-11-1.73-22.35-3.15-34-4.18-6.27-.57-12.64-.93-19.07-1.22s-12.94-.33-19.52-.29-13.2.34-19.88.79q-3.39.25-6.78.57c-24.91-1.17-50.89.79-76.44,7.93a223.08,223.08,0,0,0-59.77,26.88,186.22,186.22,0,0,1,33.88-24.17A204.4,204.4,0,0,1,515,87a248.94,248.94,0,0,1,42.31-8.19c6.44.1,12.8.42,19.07.91C602.89,81.85,627.68,87.05,650.78,92.73Z" transform="translate(0 3.32)"/><path class="cls-2" d="M559.27,513.87c34.74,9.08,69,21.64,100.49,39a302.25,302.25,0,0,1,44.66,29.78q7.37,6,14.27,12.47c3.77,5.63,7.34,11.33,10.75,17.16.55.94,1.09,1.81,1.66,2.82l1.68,3c1.12,2,2.25,4,3.26,6s2.1,4,3.07,6l2.92,6.11A218.7,218.7,0,0,1,758.66,688a179.15,179.15,0,0,1,1.74,54.49,173.36,173.36,0,0,1-15.17,51.87,193.92,193.92,0,0,1-29.07,44.26,225.34,225.34,0,0,1-38.2,34.8,262.25,262.25,0,0,1-90.3,41.6c-2,.49-4,.93-5.95,1.39l-5.84,1.23-2.85.59-3,.57c-2,.36-4,.76-5.93,1.1q-11.75,2-23.52,3.31a272.7,272.7,0,0,1-47,1.13,204.17,204.17,0,0,1-45.47-8.13c-4.62-1.4-9.17-3-13.61-4.7a198.11,198.11,0,0,1-17-10.44,243.1,243.1,0,0,1-35-29.45c-10.71-10.77-20.61-22.21-30.13-33.81l-1.23-1.5.08.06c10.27,8,20.62,16.16,31.32,24a288.86,288.86,0,0,0,33.67,21.52,181.26,181.26,0,0,0,78.63,21.79,252.13,252.13,0,0,0,43.3-1.85,371.31,371.31,0,0,0,44.06-8.39,239.1,239.1,0,0,0,81.86-39A203.36,203.36,0,0,0,698,822.94,169.89,169.89,0,0,0,723.05,784a149.68,149.68,0,0,0,12.62-44.59,154.11,154.11,0,0,0-1.78-46.85,194,194,0,0,0-15-45.62l-2.67-5.49c-.87-1.84-1.87-3.62-2.81-5.43s-1.92-3.56-2.9-5.3l-1.46-2.61c-.49-.87-1.09-1.83-1.63-2.74-4.24-7.14-8.81-14.16-13.54-21a251.62,251.62,0,0,0-31.64-37.66,179,179,0,0,0-38.92-28.54c-14.21-7.72-29.62-13.56-45.73-18.64-7.54-2.4-15.22-4.65-23-6.91Z" transform="translate(0 3.32)"/><path class="cls-3" d="M585.39,495c-8.45-2.66-16.85-5.06-25.16-7.46l-2-.58.8.21,6.74,1.75c2.2.56,4.51,1.2,6.81,1.84s4.62,1.26,6.87,1.94l6.8,2,6.78,2.11q13.54,4.34,26.93,9.44a406.47,406.47,0,0,1,52.21,24.19,326.53,326.53,0,0,1,48.3,32.49,263.36,263.36,0,0,1,41.3,41.92A222.52,222.52,0,0,1,791.81,656a202.91,202.91,0,0,1,14.66,57.59,205.19,205.19,0,0,1-2.54,59.09,215.7,215.7,0,0,1-18.68,55.53,228.2,228.2,0,0,1-32.1,48.21,236.62,236.62,0,0,1-42.45,38.31,246.76,246.76,0,0,1-24.05,15,254.57,254.57,0,0,1-25.41,12A260.51,260.51,0,0,1,608,956.83a279.8,279.8,0,0,1-54.07,4.08,331.73,331.73,0,0,1-52.57-5.1,249.74,249.74,0,0,1-50.09-14.47,219.91,219.91,0,0,1-44.64-24.71,261.46,261.46,0,0,1-37.05-32.45c-10.95-11.45-20.74-23.43-30-35.28l1,.79c10,8.21,20.25,16.77,31.21,25.11a305,305,0,0,0,35.31,23.66,209.9,209.9,0,0,0,27.47,13,201.93,201.93,0,0,0,24.2,11.26A229,229,0,0,0,505,935.22a310.47,310.47,0,0,0,49.32,3.91c8.26,0,16.61-.23,24.92-.92s16.63-1.8,24.89-3.31a238.61,238.61,0,0,0,48.51-14.28,224.65,224.65,0,0,0,44.65-24.85,215.39,215.39,0,0,0,38-34.85,204.2,204.2,0,0,0,28.48-43.33A191.73,191.73,0,0,0,780,768.18,179.81,179.81,0,0,0,768.76,665.6a197.06,197.06,0,0,0-26.86-45.25,225.35,225.35,0,0,0-23.21-25.27c-1.19-1.79-2.41-3.57-3.64-5.35a277,277,0,0,0-34.83-41.62,199.87,199.87,0,0,0-44.53-32.72C619.43,506.61,602.26,500.23,585.39,495Z" transform="translate(0 3.32)"/><path class="cls-3" d="M497.69,102.06c25.55-7.14,51.53-9.1,76.44-7.93q-6.66.63-13.35,1.57a243.4,243.4,0,0,0-40.33,9.16,187.19,187.19,0,0,0-38.64,17.34A164.75,164.75,0,0,0,447.74,149a178.48,178.48,0,0,0-26.8,35.73,216.6,216.6,0,0,0-18.42,42.55c-.62,1.86-1.16,3.77-1.73,5.67l-.85,2.85-.77,2.87-.78,2.89-.2.72-.14.58-.37,1.52-.73,3-.37,1.52-.3,1.41c-.38,1.9-.82,3.74-1.17,5.69s-.72,3.9-1,5.86l-.87,5.9-.69,5.92c-3.29,31.62,1.63,64.44,15.8,94.05s36.58,55.9,63.87,76.66q3.61,2.75,7.33,5.36l-4.92,7.51C464.14,452.3,454,446.87,444,441c-7.1-4.18-14.12-8.65-20.88-13.21-1.7-1.16-3.34-2.22-5.1-3.48l-5.09-3.59q-1.86-1.36-3.69-2.77a214.88,214.88,0,0,1-23.89-39.51,203.33,203.33,0,0,1-10-26.11,197,197,0,0,1-6.13-27A203.84,203.84,0,0,1,368.4,271l.87-6.63c.36-2.2.71-4.39,1.07-6.58s.83-4.34,1.24-6.51,1-4.39,1.46-6.57l.37-1.65.39-1.51.78-3,.39-1.51.24-.93.22-.78.89-3.12.9-3.11,1-3.1c.64-2.06,1.28-4.11,2-6.15a238.89,238.89,0,0,1,21.37-46.57,202.82,202.82,0,0,1,14.35-20.87,187.87,187.87,0,0,1,16.76-18.59c1.72-1.67,3.47-3.31,5.24-4.89A223.08,223.08,0,0,1,497.69,102.06Z" transform="translate(0 3.32)"/><path class="cls-2" d="M558.21,486.92c-1.82-.48-3.65-1-5.46-1.51s-3.51-1.05-5.25-1.6Z" transform="translate(0 3.32)"/><path class="cls-3" d="M554.63,512.67l-2-.51c-2.37-.61-4.72-1.24-7.06-1.91-4-1.16-8-2.39-11.86-3.75C540.72,508.64,547.7,510.66,554.63,512.67Z" transform="translate(0 3.32)"/><path class="cls-2" d="M535.57,79.36c7.32-.51,14.58-.66,21.74-.55A248.94,248.94,0,0,0,515,87a204.4,204.4,0,0,0-43.2,17.77,186.22,186.22,0,0,0-33.88,24.17q-7.43,4.71-14.6,10a296.92,296.92,0,0,0-33.15,28.6l-1.85,1.85-2,2.07c-.71.72-1.17,1.3-1.75,1.94s-1.11,1.22-1.67,1.92c-2.3,2.67-4.42,5.52-6.5,8.42s-4,6-5.83,9.07-3.57,6.32-5.15,9.62a174.49,174.49,0,0,0-14.08,42.27,194.65,194.65,0,0,0-3.17,22.54,201.92,201.92,0,0,0-.59,23,191.18,191.18,0,0,0,2.09,23,178.11,178.11,0,0,0,4.9,22.67,164.44,164.44,0,0,0,18.68,42.44,150,150,0,0,0,30.42,35.18c1.81,1.55,3.67,3,5.56,4.48q3.06,4,6.3,7.9A255.41,255.41,0,0,0,456.47,465q4.35,3.32,8.83,6.47l-4.54,6.93q-15.09-7.47-29.42-16.17c-7.52-4.58-14.79-9.34-22-14.37-1.79-1.26-3.68-2.54-5.35-3.78l-5.24-3.8c-3.63-2.72-7.21-5.51-10.63-8.49a172.16,172.16,0,0,1-34.8-41.13A187.69,187.69,0,0,1,332.63,342a201.79,201.79,0,0,1-5.15-25.53,211.71,211.71,0,0,1-2-25.68c-.1-4.27,0-8.53.13-12.78s.47-8.48.92-12.69a214,214,0,0,1,3.95-24.94,195.54,195.54,0,0,1,16.62-47.06c1.87-3.7,3.94-7.31,6.07-10.87s4.47-7,6.92-10.35,5-6.61,7.81-9.71c.66-.78,1.42-1.58,2.16-2.37s1.51-1.65,2.16-2.27l2-2,2.25-2.16a316.53,316.53,0,0,1,35.91-29.67,257.44,257.44,0,0,1,39.33-23A232.62,232.62,0,0,1,493.43,86,239.37,239.37,0,0,1,535.57,79.36Z" transform="translate(0 3.32)"/><path class="cls-3" d="M516.34,471.36a237.08,237.08,0,0,0,24,10.05q3.54,1.27,7.13,2.4-6-1.74-11.9-3.52c-10.34-3.14-20.52-6.48-30.49-10.19l2.37-3.22Q511.86,469.21,516.34,471.36Z" transform="translate(0 3.32)"/><path class="cls-3" d="M507.48,466.88l-2.37,3.22q-8.5-3.17-16.82-6.7-6.93-2.94-13.7-6.15l4.92-7.51c4.55,3.21,9.23,6.28,14,9.2C498.08,461.71,502.74,464.37,507.48,466.88Z" transform="translate(0 3.32)"/><path class="cls-2" d="M505.11,470.1,491.91,488a276.57,276.57,0,0,1-26.61-16.59l9.29-14.18q6.78,3.21,13.7,6.15Q496.6,466.94,505.11,470.1Z" transform="translate(0 3.32)"/><path class="cls-2" d="M505.1,494.77a269.41,269.41,0,0,0,26.64,11.05c.66.23,1.32.47,2,.68-1.89-.57-3.77-1.16-5.66-1.75-12.91-4-25.82-8.47-38.5-13.54l2.35-3.19Q498.39,491.58,505.1,494.77Z" transform="translate(0 3.32)"/><path class="cls-2" d="M491.91,488l-2.35,3.19q-5.64-2.26-11.21-4.69-8.91-3.87-17.59-8.16l4.54-6.93A276.57,276.57,0,0,0,491.91,488Z" transform="translate(0 3.32)"/><path class="cls-4" d="M489.56,491.21,287.38,765.73c-3.25-2.66-6.58-5.2-10-7.59L460.76,478.36q8.67,4.29,17.59,8.16Q483.92,489,489.56,491.21Z" transform="translate(0 3.32)"/><path class="cls-2" d="M474.59,457.25l-9.29,14.18q-4.47-3.15-8.83-6.47a255.41,255.41,0,0,1-40.93-39.07q-3.24-3.88-6.3-7.9,1.83,1.41,3.69,2.77l5.09,3.59c1.76,1.26,3.4,2.32,5.1,3.48,6.76,4.56,13.78,9,20.88,13.21C454,446.87,464.14,452.3,474.59,457.25Z" transform="translate(0 3.32)"/><path class="cls-2" d="M417.54,901a198.11,198.11,0,0,0,17,10.44,209.9,209.9,0,0,1-27.47-13,305,305,0,0,1-35.31-23.66c-11-8.34-21.2-16.9-31.21-25.11l-1-.79-.42-.53c-9.4-12-18.28-23.93-27.29-35.18C308.54,809,305.2,805,301.8,801c6.24,3.83,12.41,7.93,18.55,12.22,10.35,7.23,20.55,15,30.79,23l1.23,1.5c9.52,11.6,19.42,23,30.13,33.81A243.1,243.1,0,0,0,417.54,901Z" transform="translate(0 3.32)"/><path class="cls-2" d="M339.16,848.37l.42.53c-9.67-7.94-19.13-15.55-28.63-22.57a333.69,333.69,0,0,0-29.59-19.69q-7.46-4.38-15-8.17l-2.29-1.15,8.79-11.93c5.33,2.48,10.63,5.19,15.92,8.09q6.54,3.56,13,7.55c3.4,3.94,6.74,8,10.07,12.16C320.88,824.44,329.76,836.35,339.16,848.37Z" transform="translate(0 3.32)"/><path class="cls-3" d="M324.1,803.13c9.13,10.83,17.95,22,27,33.15-10.24-8-20.44-15.8-30.79-23C314.21,809,308,804.86,301.8,801a250.13,250.13,0,0,0-17.93-19c-1.67-1.58-3.37-3.13-5.09-4.63l8.6-11.68c2.18,1.78,4.32,3.62,6.42,5.5A309.52,309.52,0,0,1,324.1,803.13Z" transform="translate(0 3.32)"/><path class="cls-3" d="M287.38,765.73l-8.6,11.68c-3-2.61-6-5.1-9.14-7.44l7.75-11.83C280.8,760.53,284.13,763.07,287.38,765.73Z" transform="translate(0 3.32)"/><path class="cls-4" d="M278.78,777.41l-5.88,8-.13-.06-7.91-3.54-2.32-1,7.1-10.83C272.75,772.31,275.8,774.8,278.78,777.41Z" transform="translate(0 3.32)"/><path class="cls-2" d="M272.9,785.39l-8.79,11.93-5.32-2.65-4.07-1.94,7.82-11.93,2.32,1,7.91,3.54Z" transform="translate(0 3.32)"/><path class="cls-4" d="M264.11,797.32,151.62,950.05l103.1-157.32,4.07,1.94Z" transform="translate(0 3.32)"/><path class="cls-2" d="M52.07,808.88a169.68,169.68,0,0,1,38.28-36.72c1.07-.74,2.16-1.47,3.27-2.2a110.26,110.26,0,0,1,21.94-9.38,129.16,129.16,0,0,1,24.1-4.88q6.42-.71,13.18-.81c4.5-.12,9.09,0,13.77.3a213.79,213.79,0,0,1,28.91,3.86,297.43,297.43,0,0,1,30.22,7.9c10.25,3.22,20.65,7.07,31.17,11.44,1.87.79,3.74,1.6,5.63,2.41l-7.82,11.93-3.41-1.64q-15-7-29.59-12.39c-19.42-7.19-38.25-12-55.93-14.1s-34.16-1.16-48.47,2.35a108.56,108.56,0,0,0-35.87,16A142.75,142.75,0,0,0,59,802.18c-2.8,2.91-5.22,5.56-7.31,7.84l-2.51,2.7Q50.6,810.8,52.07,808.88Z" transform="translate(0 3.32)"/><path class="cls-2" d="M46.35,815.69a47.41,47.41,0,0,1-3.51,3.23c-.73.59-1.15.9-1.25,1,.09-.08.5-.43,1.17-1.07s1.85-1.89,3.21-3.48c2.72-3.18,6.43-8.17,11.65-14.44a145.25,145.25,0,0,1,21.43-21.24A114.1,114.1,0,0,1,93.62,770c-1.11.73-2.2,1.46-3.27,2.2a169.68,169.68,0,0,0-38.28,36.72q-1.47,1.92-2.85,3.84C48.16,813.84,47.2,814.84,46.35,815.69Z" transform="translate(0 3.32)"/><path class="cls-3" d="M49.22,812.72a212.33,212.33,0,0,0-19.6,33.09,245.4,245.4,0,0,0-11.86,29.88c-2.69,8.33-4.41,14.84-5.5,19.24-.54,2.19-.93,3.87-1.19,5-.19.84-.31,1.38-.36,1.59,0-.21.12-.75.27-1.61.19-1.13.48-2.83.9-5.06.86-4.45,2.16-11.07,4.47-19.57a246.56,246.56,0,0,1,10.46-30.72,206,206,0,0,1,21.11-38.7A173.4,173.4,0,0,1,86,766.12a165.64,165.64,0,0,1,58.87-28,192.06,192.06,0,0,1,35.8-5.52,171.63,171.63,0,0,1,38.58,1.65,136,136,0,0,1,39.18,12.53,145.28,145.28,0,0,1,18.95,11.33L269.64,770a131.83,131.83,0,0,0-17.39-11.14,125.32,125.32,0,0,0-35.15-12.42,160.2,160.2,0,0,0-35.9-2.66,189.4,189.4,0,0,0-34,4A159.65,159.65,0,0,0,93.62,770a114.1,114.1,0,0,0-14.57,9.7A145.25,145.25,0,0,0,57.62,800.9c-5.22,6.27-8.93,11.26-11.65,14.44-1.36,1.59-2.44,2.75-3.21,3.48s-1.08,1-1.17,1.07c.1-.07.52-.38,1.25-1a47.41,47.41,0,0,0,3.51-3.23C47.2,814.84,48.16,813.84,49.22,812.72Z" transform="translate(0 3.32)"/><line class="cls-5" x1="507.48" y1="470.2" x2="762.62" y2="123.79"/><line class="cls-5" x1="287.38" y1="769.05" x2="489.56" y2="494.53"/><line class="cls-5" x1="272.9" y1="788.71" x2="278.78" y2="780.73"/><polyline class="cls-5" points="254.72 796.05 151.62 953.37 264.11 800.64"/><line class="cls-5" x1="269.64" y1="773.29" x2="262.54" y2="784.12"/><line class="cls-5" x1="460.76" y1="481.68" x2="277.39" y2="761.46"/><line class="cls-5" x1="698.41" y1="119.05" x2="479.51" y2="453.06"/><line class="cls-5" x1="705.77" y1="107.83" x2="704.62" y2="109.58"/><path class="cls-5" d="M771.84,108l4.73-6.42c6.4-8.69,3-21.87-7.52-29.18l-9.81-6.82c-10.52-7.32-24-5.91-30,3.12L711.83,95.26" transform="translate(0 3.32)"/><line class="cls-5" x1="724.83" y1="113.69" x2="725.69" y2="112.44"/><path class="cls-5" d="M738.68,121.48,712.21,160a4,4,0,0,1-5.56,1l-8-5.5a4,4,0,0,1-1-5.56l21-30.6" transform="translate(0 3.32)"/><path class="cls-5" d="M731.32,100.94,745.7,80a4,4,0,0,1,5.56-1l8,5.5a4,4,0,0,1,1,5.56l-10.5,15.28" transform="translate(0 3.32)"/></g></svg>