<?xml version="1.0" encoding="UTF-8" standalone="no"?>
<svg width="1024px" height="1028px" viewBox="0 0 1024 1028" version="1.1" xmlns="http://www.w3.org/2000/svg" xmlns:xlink="http://www.w3.org/1999/xlink">
    <!-- Generator: Sketch 39.1 (31720) - http://www.bohemiancoding.com/sketch -->
    <title>stitch-logo</title>
    <desc>Created with Sketch.</desc>
    <defs>
        <linearGradient x1="41.8959488%" y1="1.5907303%" x2="60.1845332%" y2="100%" id="linearGradient-1">
            <stop stop-color="#57BC90" stop-opacity="0.5" offset="0%"></stop>
            <stop stop-color="#77C9D4" stop-opacity="0.5" offset="100%"></stop>
        </linearGradient>
        <rect id="path-2" x="0" y="0.32" width="1024" height="1024" rx="184"></rect>
    </defs>
    <g id="Page-1" stroke="none" stroke-width="1" fill="none" fill-rule="evenodd">
        <g id="stitch-logo">
            <g id="Background" transform="translate(0.000000, 3.000000)">
                <g id="Rectangle-path">
                    <use fill="#59A59E" xlink:href="#path-2"></use>
                    <use fill="url(#linearGradient-1)" xlink:href="#path-2"></use>
                </g>
            </g>
            <g id="Thread_2" transform="translate(10.000000, 0.000000)">
                <path d="M817.74,22.1 C818.81,24.75 819.86,27.65 820.82,30.8 C821.14,32.29 821.41,33.8 821.64,35.45 C822.41569,40.8892849 822.536552,46.4019448 822,51.87 C821.75901,46.7646448 821.140656,41.6841131 820.15,36.67 C819.65,34.13 819.08,31.67 818.46,29.44 C818.03,26.98 817.46,24.68 816.91,22.55 C816.122184,19.7220465 815.184187,16.938097 814.1,14.21 C815.447368,16.7760679 816.662296,19.4095242 817.74,22.1 L817.74,22.1 Z" id="Shape" fill="#FFFFFF"></path>
                <path d="M810.05,5.5 C809.05,3.65 808.26,2.28 807.7,1.37 L806.88,0.02 L807.79,1.32 C808.4,2.19 809.3,3.51 810.42,5.32 C813.722704,10.5943498 816.407052,16.2314808 818.42,22.12 C819.394044,24.9751166 820.192207,27.8872412 820.81,30.84 C819.81,27.69 818.81,24.79 817.73,22.14 C816.649031,19.4493248 815.430764,16.8158652 814.08,14.25 C812.900862,11.2604751 811.555427,8.3392457 810.05,5.5 L810.05,5.5 Z" id="Shape" fill="#FFFFFF"></path>
                <path d="M816.35,22.63 C813.48,14.4 810.21,8.48 807.5,4.88 C806.494913,3.50115469 805.352384,2.22795495 804.09,1.08 C803.44,0.51 803,0.19 802.82,0.08 C803.281955,0.366118122 803.726106,0.680029375 804.15,1.02 C805.488799,2.10402805 806.71499,3.32016785 807.81,4.65 C810.229316,7.61733124 812.333938,10.8278843 814.09,14.23 C815.174187,16.958097 816.112184,19.7420465 816.9,22.57 C817.48,24.7 818.02,27 818.45,29.46 C817.79,27.0266667 817.09,24.75 816.35,22.63 L816.35,22.63 Z" id="Shape" fill="#F2F2F2"></path>
                <path d="M802.73,0 L802.82,0.06 L802.73,0 Z" id="Shape" fill="#F2F2F2"></path>
                <path d="M786.14,108.9 C783.4,110.9 780.53,112.9 777.56,114.74 C776.46,115.42 775.69,115.88 774.56,116.48 C773.43,117.08 772.41,117.61 771.34,118.13 L770.45,118.53 C768.4,118.71 766.32,118.82 764.24,118.88 C761.6,118.95 758.93,118.88 756.24,118.82 L759.85,113.92 C760.65,113.72 761.44,113.5 762.22,113.27 C764.067998,112.714979 765.886956,112.067496 767.67,111.33 C773.902824,111.277659 780.105737,110.461575 786.14,108.9 L786.14,108.9 Z" id="Shape" fill="#FFFFFF"></path>
                <path d="M777.56,114.74 C780.56,112.87 783.4,110.93 786.14,108.9 C787.77,108.47 789.37,107.98 790.92,107.41 C798.620195,104.734485 805.433323,99.9870948 810.61,93.69 C815.197646,87.8475857 818.425864,81.0563714 820.06,73.81 C821.579727,67.3038492 822.251965,60.6285266 822.06,53.95 C822.06,53.25 822.06,52.56 821.99,51.87 C822.529865,46.4023441 822.41236,40.8896852 821.64,35.45 C821.41,33.84 821.14,32.29 820.82,30.8 C821.346667,32.52 821.846667,34.3133333 822.32,36.18 C823.779083,41.9599892 824.735976,47.855251 825.18,53.8 C825.758072,60.7771644 825.421893,67.7999569 824.18,74.69 C822.737153,82.6892665 819.52937,90.2663306 814.79,96.87 C812.137135,100.464457 808.993169,103.669013 805.45,106.39 C801.720907,109.251503 797.628506,111.605391 793.28,113.39 C786.003389,116.262549 778.332473,118.012529 770.53,118.58 L771.42,118.18 C772.49,117.66 773.56,117.18 774.64,116.53 C775.72,115.88 776.46,115.42 777.56,114.74 L777.56,114.74 Z" id="Shape" fill="#F2F2F2"></path>
                <path d="M786.14,108.9 C780.118291,110.454965 773.929016,111.267664 767.71,111.32 L768.21,111.12 C769.21,110.7 770.12,110.28 770.99,109.84 C771.86,109.4 772.99,108.84 773.78,108.36 C777.49,106.27 781.03,104.06 784.36,101.73 C790.719527,97.3270684 796.536522,92.1881075 801.69,86.42 C806.304647,81.2320624 810.162811,75.4178837 813.15,69.15 C818.11176,58.7447342 820.217042,47.2070991 819.25,35.72 C819.08,33.53 818.8,31.43 818.45,29.44 C819.07,31.72 819.64,34.13 820.14,36.67 C821.134014,41.6838617 821.755711,46.7643957 822,51.87 L822,52.08 C821.331958,58.5623951 819.732145,64.9144972 817.25,70.94 C814.413427,77.7693704 810.629639,84.1654535 806.01,89.94 C800.86549,96.3680526 794.958858,102.147083 788.42,107.15 C787.65,107.77 786.9,108.32 786.14,108.9 L786.14,108.9 Z" id="Shape" fill="#FFFFFF"></path>
                <path d="M759.05,75.67 C769.58,82.98 772.97,96.16 766.57,104.85 L761.84,111.32 C754.433864,111.004723 747.062521,110.12551 739.79,108.69 L750.29,93.32 C751.546061,91.5078204 751.098782,89.020949 749.29,87.76 L741.29,82.26 C739.47782,81.0039393 736.990949,81.4512184 735.73,83.26 L721.35,104.19 L719.08,103.54 L711.08,101.15 C708.4,100.35 705.61,99.58 702.85,98.78 L701.85,98.51 L719.29,71.9 C725.21,62.9 738.74,61.46 749.29,68.78 L759.05,75.67 Z" id="Shape" fill="#6B6B6B"></path>
                <path d="M762.26,113.32 C761.48,113.55 760.69,113.77 759.89,113.97 L761.89,111.32 C762.69,111.32 763.48,111.38 764.27,111.39 L767.76,111.39 C765.960395,112.125694 764.124714,112.769851 762.26,113.32 L762.26,113.32 Z" id="Shape" fill="#F2F2F2"></path>
                <path d="M761.84,111.32 L759.84,113.97 C751.835697,115.85658 743.598774,116.564046 735.39,116.07 L734.69,116.07 L739.69,108.73 C746.996449,110.15713 754.401405,111.022992 761.84,111.32 L761.84,111.32 Z" id="Shape" fill="#F2F2F2"></path>
                <path d="M764.68,120.84 C760.751591,122.177617 756.717264,123.181181 752.62,123.84 L756.28,118.84 C758.96,118.95 761.63,118.97 764.28,118.9 C766.36,118.84 768.44,118.73 770.49,118.55 C768.6,119.39 766.66,120.16 764.68,120.84 L764.68,120.84 Z" id="Shape" fill="#FFFFFF"></path>
                <path d="M756.28,118.82 L752.62,123.82 C746.861381,124.71625 741.037335,125.124368 735.21,125.04 C733.036667,125.04 730.86,124.97 728.68,124.83 L734.42,116.49 C741.64656,117.753239 748.94953,118.531643 756.28,118.82 L756.28,118.82 Z" id="Shape" fill="#FFFFFF"></path>
                <path d="M752.62,123.79 L497.48,470.2 C492.74,467.69 488.08,465.03 483.48,462.26 C478.71,459.34 474.03,456.26 469.48,453.06 L688.38,119.06 C693.63,120.13 698.84,121.06 704,121.96 C705.55,122.21 707.09,122.46 708.63,122.69 L687.63,153.29 C686.373939,155.10218 686.821218,157.589051 688.63,158.85 L696.63,164.35 C698.44218,165.606061 700.929051,165.158782 702.19,163.35 L728.66,124.84 C730.84,124.96 733.016667,125.03 735.19,125.05 C741.025136,125.122267 746.855927,124.700764 752.62,123.79 L752.62,123.79 Z" id="Shape" fill="#6B6B6B"></path>
                <path d="M735.44,116.02 C743.648774,116.514046 751.885697,115.80658 759.89,113.92 L756.28,118.82 C748.948856,118.521726 741.645881,117.733298 734.42,116.46 L734.74,115.98 L735.44,116.02 Z" id="Shape" fill="#FFFFFF"></path>
                <path d="M739.79,108.64 L734.79,115.98 C733.283333,115.913333 731.763333,115.813333 730.23,115.68 C725.73,114.83 721.23,113.81 716.66,112.68 L715.74,112.45 L721.37,104.27 C725.81,105.523333 730.21,106.626667 734.57,107.58 C736.296667,107.953333 738.036667,108.306667 739.79,108.64 L739.79,108.64 Z" id="Shape" fill="#F2F2F2"></path>
                <path d="M734.74,115.98 L734.42,116.46 L732.81,116.17 L730.18,115.68 C731.713333,115.813333 733.233333,115.913333 734.74,115.98 L734.74,115.98 Z" id="Shape" fill="#FFFFFF"></path>
                <path d="M734.42,116.46 L728.68,124.8 C722.08,124.45 715.41,123.68 708.68,122.68 L714.85,113.68 C720.06,114.57 725.18,115.25 730.2,115.68 L732.83,116.17 L734.42,116.46 Z" id="Shape" fill="#FFFFFF"></path>
                <path d="M721.32,104.26 L715.69,112.44 C710.63,111.2 705.46,109.98 700.3,108.83 L695.77,107.83 L701.83,98.58 L702.83,98.85 C705.59,99.65 708.38,100.42 711.06,101.22 L719.06,103.61 L721.32,104.26 Z" id="Shape" fill="#6B6B6B"></path>
                <path d="M714.83,113.69 L708.66,122.69 C707.12,122.46 705.58,122.21 704.03,121.96 C698.87,121.11 693.66,120.13 688.41,119.06 L694.62,109.59 C698.4,110.47 702.143333,111.286667 705.85,112.04 C708.87,112.64 711.87,113.2 714.83,113.69 L714.83,113.69 Z" id="Shape" fill="#6B6B6B"></path>
                <path d="M705.05,593.05 C706.28,594.83 707.5,596.61 708.69,598.4 C704.103333,594.066667 699.346667,589.91 694.42,585.93 C680.446007,574.698458 665.500417,564.7325 649.76,556.15 C618.24,538.83 584.01,526.27 549.27,517.15 L544.63,515.95 C537.7,513.95 530.72,511.95 523.72,509.78 C523.06,509.57 522.4,509.33 521.72,509.1 C512.649074,505.894959 503.756336,502.206342 495.08,498.05 C490.606667,495.923333 486.21,493.673333 481.89,491.3 L495.09,473.38 C505.09,477.09 515.24,480.38 525.58,483.57 C529.52,484.763333 533.486667,485.936667 537.48,487.09 C539.22,487.64 540.98,488.17 542.73,488.69 C544.48,489.21 546.37,489.69 548.19,490.2 L550.19,490.78 C558.5,493.18 566.9,495.58 575.35,498.24 C592.22,503.51 609.35,509.89 625.65,518.67 C641.936708,527.46227 656.923236,538.474154 670.18,551.39 C683.140326,564.100536 694.819818,578.054296 705.05,593.05 L705.05,593.05 Z" id="Shape" fill="#FFFFFF"></path>
                <path d="M705.85,112.03 C702.15,111.283333 698.406667,110.466667 694.62,109.58 L695.77,107.83 L700.3,108.83 C705.46,109.98 710.63,111.2 715.69,112.44 L714.83,113.69 C711.87,113.2 708.87,112.64 705.85,112.03 L705.85,112.03 Z" id="Shape" fill="#6B6B6B"></path>
                <path d="M701.83,98.58 L695.77,107.83 C685.32,105.57 674.5,103.52 663.36,101.78 C656,99.88 648.48,97.93 640.78,96.05 C617.68,90.37 592.89,85.17 566.38,83.05 C560.11,82.56 553.75,82.24 547.31,82.14 C547.77,82.08 548.24,82.04 548.7,81.99 C577.52,78.99 605.14,80.45 630.89,83.85 C643.78,85.5 656.22,87.76 668.21,90.32 C679.85,92.7933333 691.056667,95.5466667 701.83,98.58 L701.83,98.58 Z" id="Shape" fill="#F2F2F2"></path>
                <path d="M694.62,109.58 L688.41,119.05 C672.16,115.77 655.41,111.7 638.04,108.05 C615.04,103.2 590.8,98.8 565.43,97.52 L564.13,97.46 C566.39,97.2533333 568.65,97.0633333 570.91,96.89 C577.59,96.44 584.22,96.19 590.79,96.1 C597.36,96.01 603.87,96.1 610.31,96.39 C616.75,96.68 623.11,97.04 629.38,97.61 C641.01,98.61 652.38,100.06 663.38,101.79 C674.11,104.56 684.51,107.25 694.62,109.58 L694.62,109.58 Z" id="Shape" fill="#FFFFFF"></path>
                <path d="M640.78,96.05 C648.48,97.93 656,99.88 663.36,101.78 C652.36,100.05 641.01,98.63 629.36,97.6 C623.09,97.03 616.72,96.67 610.29,96.38 C603.86,96.09 597.35,96.05 590.77,96.09 C584.19,96.13 577.57,96.43 570.89,96.88 C568.63,97.0466667 566.37,97.2366667 564.11,97.45 C539.2,96.28 513.22,98.24 487.67,105.38 C466.532005,111.348656 446.391384,120.406376 427.9,132.26 C438.254748,122.962719 449.619033,114.855435 461.78,108.09 C475.459962,100.533882 489.961375,94.5715935 505,90.32 C518.84007,86.3720844 532.996436,83.631819 547.31,82.13 C553.75,82.23 560.11,82.55 566.38,83.04 C592.89,85.17 617.68,90.37 640.78,96.05 L640.78,96.05 Z" id="Shape" fill="#FFFFFF"></path>
                <path d="M549.27,517.19 C584.01,526.27 618.27,538.83 649.76,556.19 C665.500417,564.7725 680.446007,574.738458 694.42,585.97 C699.333333,589.97 704.09,594.126667 708.69,598.44 C712.46,604.07 716.03,609.77 719.44,615.6 C719.99,616.54 720.53,617.41 721.1,618.42 L722.78,621.42 C723.9,623.42 725.03,625.42 726.04,627.42 C727.05,629.42 728.14,631.42 729.11,633.42 L732.03,639.53 C739.706945,656.03402 745.293477,673.431885 748.66,691.32 C752.016462,709.288203 752.603255,727.664262 750.4,745.81 C748.085966,763.786712 742.967116,781.289333 735.23,797.68 C727.609376,813.693158 717.828207,828.585298 706.16,841.94 C694.803246,854.96645 681.985656,866.643207 667.96,876.74 C640.787891,896.237615 610.13719,910.357982 577.66,918.34 C575.66,918.83 573.66,919.27 571.71,919.73 L565.87,920.96 L563.02,921.55 L560.02,922.12 C558.02,922.48 556.02,922.88 554.09,923.22 C546.256667,924.553333 538.416667,925.656667 530.57,926.53 C514.965074,928.258952 499.239985,928.637023 483.57,927.66 C468.154592,926.678756 452.900328,923.951305 438.1,919.53 C433.48,918.13 428.93,916.53 424.49,914.83 C418.651599,911.637708 412.977741,908.153291 407.49,904.39 C394.923659,895.695191 383.205132,885.834888 372.49,874.94 C361.78,864.17 351.88,852.73 342.36,841.13 L341.13,839.63 L341.21,839.69 C351.48,847.69 361.83,855.85 372.53,863.69 C383.243118,871.631959 394.493363,878.822493 406.2,885.21 C430.413358,898.354763 457.304595,905.806881 484.83,907 C499.289679,907.627274 513.776518,907.008321 528.13,905.15 C542.972312,903.243723 557.685815,900.441946 572.19,896.76 C601.714487,889.100425 629.500725,875.862418 654.05,857.76 C666.529263,848.587073 677.919775,838.018557 688,826.26 C698.087932,814.484001 706.516187,801.382355 713.05,787.32 C719.545982,773.201943 723.803665,758.158354 725.67,742.73 C727.469516,727.113947 726.869237,711.314491 723.89,695.88 C720.798689,680.110783 715.760096,664.78674 708.89,650.26 L706.22,644.77 C705.35,642.93 704.35,641.15 703.41,639.34 C702.47,637.53 701.49,635.78 700.51,634.04 L699.05,631.43 C698.56,630.56 697.96,629.6 697.42,628.69 C693.18,621.55 688.61,614.53 683.88,607.69 C674.588559,594.133479 663.991273,581.519895 652.24,570.03 C640.614549,558.803304 627.522241,549.202727 613.32,541.49 C599.11,533.77 583.7,527.93 567.59,522.85 C560.05,520.45 552.37,518.2 544.59,515.94 L549.27,517.19 Z" id="Shape" fill="#FFFFFF"></path>
                <path d="M575.39,498.32 C566.94,495.66 558.54,493.26 550.23,490.86 L548.23,490.28 L549.03,490.49 L555.77,492.24 C557.97,492.8 560.28,493.44 562.58,494.08 C564.88,494.72 567.2,495.34 569.45,496.02 L576.25,498.02 L583.03,500.13 C592.056667,503.023333 601.033333,506.17 609.96,509.57 C627.912937,516.389816 645.359976,524.473399 662.17,533.76 C679.205154,543.130462 695.369368,554.003656 710.47,566.25 C725.759491,578.636563 739.612617,592.697654 751.77,608.17 C764.021218,623.802947 774.124298,641.005761 781.81,659.32 C789.4965,677.693176 794.43613,697.097901 796.47,716.91 C798.481384,736.625974 797.625832,756.529353 793.93,776 C790.257825,795.273424 783.9732,813.955715 775.25,831.53 C766.641057,848.898159 755.854196,865.098612 743.15,879.74 C730.600681,894.179059 716.346628,907.042963 700.7,918.05 C692.977358,923.506672 684.947447,928.514932 676.65,933.05 C668.407401,937.514792 659.924481,941.520893 651.24,945.05 C634.0798,951.959358 616.23246,957.021245 598,960.15 C580.151263,963.257323 562.042919,964.623738 543.93,964.23 C526.298969,963.929919 508.719933,962.224515 491.36,959.13 C474.204203,956.067531 457.416072,951.217776 441.27,944.66 C425.481646,938.183281 410.50084,929.890814 396.63,919.95 C383.286469,910.32321 370.881447,899.458353 359.58,887.5 C348.63,876.05 338.84,864.07 329.58,852.22 L330.58,853.01 C340.58,861.22 350.83,869.78 361.79,878.12 C372.995478,886.818187 384.79412,894.724046 397.1,901.78 C405.930521,906.771395 415.111245,911.116113 424.57,914.78 C432.379507,919.06294 440.46383,922.824488 448.77,926.04 C463.700768,931.810968 479.195474,936.000538 495,938.54 C511.309813,941.153237 527.802164,942.46072 544.32,942.45 C552.58,942.45 560.93,942.22 569.24,941.53 C577.55,940.84 585.87,939.73 594.13,938.22 C610.760165,935.191713 627.02146,930.404838 642.64,923.94 C658.42003,917.381834 673.400247,909.04458 687.29,899.09 C701.306409,889.036806 714.064464,877.336327 725.29,864.24 C736.585984,851.065545 746.156455,836.504853 753.77,820.91 C761.399025,805.253589 766.859245,788.6307 770,771.5 C776.356434,736.942906 772.448815,701.280675 758.76,668.92 C751.869857,652.703701 742.836001,637.484713 731.9,623.67 C724.81677,614.669064 717.057618,606.22125 708.69,598.4 C707.5,596.61 706.28,594.83 705.05,593.05 C694.830328,578.070028 683.164351,564.129804 670.22,551.43 C656.963236,538.514154 641.976708,527.50227 625.69,518.71 C609.43,509.93 592.26,503.55 575.39,498.32 L575.39,498.32 Z" id="Shape" fill="#F2F2F2"></path>
                <path d="M487.69,105.38 C513.24,98.24 539.22,96.28 564.13,97.45 C559.69,97.87 555.24,98.3933333 550.78,99.02 C537.10114,100.923628 523.609115,103.98802 510.45,108.18 C496.955496,112.479624 483.992548,118.296848 471.81,125.52 C459.322543,132.913792 447.866743,141.925106 437.74,152.32 C427.345811,163.060839 418.341995,175.064806 410.94,188.05 C403.295254,201.533414 397.119882,215.798456 392.52,230.6 C391.9,232.46 391.36,234.37 390.79,236.27 L389.94,239.12 L389.17,241.99 L388.39,244.88 L388.19,245.6 L388.05,246.18 L387.68,247.7 L386.95,250.7 L386.58,252.22 L386.28,253.63 C385.9,255.53 385.46,257.37 385.11,259.32 C384.76,261.27 384.39,263.22 384.11,265.18 L383.24,271.08 L382.55,277 C379.26,308.62 384.18,341.44 398.35,371.05 C412.52,400.66 434.93,426.95 462.22,447.71 C464.626667,449.543333 467.07,451.33 469.55,453.07 L464.63,460.58 C454.14,455.62 444,450.19 434,444.32 C426.9,440.14 419.88,435.67 413.12,431.11 C411.42,429.95 409.78,428.89 408.02,427.63 L402.93,424.04 C401.69,423.133333 400.46,422.21 399.24,421.27 C389.880758,408.996245 381.8712,395.749797 375.35,381.76 C371.421518,373.296428 368.080288,364.572475 365.35,355.65 C362.675966,346.804905 360.627575,337.782628 359.22,328.65 C356.523348,310.657742 356.247566,292.385445 358.4,274.32 L359.27,267.69 C359.63,265.49 359.98,263.3 360.34,261.11 C360.7,258.92 361.17,256.77 361.58,254.6 C361.99,252.43 362.58,250.21 363.04,248.03 L363.41,246.38 L363.8,244.87 L364.58,241.87 L364.97,240.36 L365.21,239.43 L365.43,238.65 L366.32,235.53 L367.22,232.42 L368.22,229.32 C368.86,227.26 369.5,225.21 370.22,223.17 C375.653133,206.925415 382.817667,191.312296 391.59,176.6 C395.933876,169.351172 400.726552,162.380919 405.94,155.73 C411.107209,149.167657 416.706299,142.957211 422.7,137.14 C424.42,135.47 426.17,133.83 427.94,132.25 C446.425776,120.401656 466.559509,111.347373 487.69,105.38 L487.69,105.38 Z" id="Shape" fill="#F2F2F2"></path>
                <path d="M548.21,490.24 C546.39,489.76 544.56,489.24 542.75,488.73 C540.94,488.22 539.24,487.68 537.5,487.13 L548.21,490.24 Z" id="Shape" fill="#FFFFFF"></path>
                <path d="M544.63,515.99 L542.63,515.48 C540.26,514.87 537.91,514.24 535.57,513.57 C531.57,512.41 527.57,511.18 523.71,509.82 C530.72,511.96 537.7,513.98 544.63,515.99 L544.63,515.99 Z" id="Shape" fill="#F2F2F2"></path>
                <path d="M525.57,82.68 C532.89,82.17 540.15,82.02 547.31,82.13 C532.996436,83.631819 518.84007,86.3720844 505,90.32 C489.968253,94.5730316 475.473626,100.535289 461.8,108.09 C449.639033,114.855435 438.274748,122.962719 427.92,132.26 C422.966667,135.4 418.1,138.733333 413.32,142.26 C401.581232,150.964546 390.501118,160.52386 380.17,170.86 L378.32,172.71 L376.32,174.78 C375.61,175.5 375.15,176.08 374.57,176.72 C373.99,177.36 373.46,177.94 372.9,178.64 C370.6,181.31 368.48,184.16 366.4,187.06 C364.32,189.96 362.4,193.06 360.57,196.13 C358.74,199.2 357,202.45 355.42,205.75 C348.939726,219.180468 344.20783,233.386239 341.34,248.02 C339.844568,255.465066 338.786092,262.991264 338.17,270.56 C337.536353,278.209222 337.339367,285.888351 337.58,293.56 C337.812536,301.261779 338.510476,308.942456 339.67,316.56 C340.809061,324.2151 342.445864,331.787819 344.57,339.23 C348.760846,354.187966 355.050024,368.476655 363.25,381.67 C371.499324,394.906885 381.76266,406.776187 393.67,416.85 C395.48,418.4 397.34,419.85 399.23,421.33 C401.27,423.996667 403.37,426.63 405.53,429.23 C417.686177,443.736635 431.417148,456.847129 446.47,468.32 C449.37,470.533333 452.313333,472.69 455.3,474.79 L450.76,481.72 C440.7,476.74 430.893333,471.35 421.34,465.55 C413.82,460.97 406.55,456.21 399.34,451.18 C397.55,449.92 395.66,448.64 393.99,447.4 L388.75,443.6 C385.12,440.88 381.54,438.09 378.12,435.11 C364.433344,423.3113 352.689572,409.431376 343.32,393.98 C334.161692,378.817597 327.195918,362.435066 322.63,345.32 C320.365375,336.929776 318.645126,328.402019 317.48,319.79 C316.292741,311.278527 315.624839,302.702659 315.48,294.11 C315.38,289.84 315.48,285.58 315.61,281.33 C315.74,277.08 316.08,272.85 316.53,268.64 C317.354627,260.256166 318.673589,251.928339 320.48,243.7 C323.987149,227.367825 329.572633,211.55237 337.1,196.64 C338.97,192.94 341.04,189.33 343.17,185.77 C345.3,182.21 347.64,178.77 350.09,175.42 C352.54,172.07 355.09,168.81 357.9,165.71 C358.56,164.93 359.32,164.13 360.06,163.34 C360.8,162.55 361.57,161.69 362.22,161.07 L364.22,159.07 L366.47,156.91 C377.695045,146.151457 389.697537,136.234611 402.38,127.24 C414.784482,118.426023 427.946012,110.729222 441.71,104.24 C455.11027,97.9505624 469.080291,92.9545723 483.43,89.32 C497.251051,85.8569023 511.353708,83.6347465 525.57,82.68 L525.57,82.68 Z" id="Shape" fill="#FFFFFF"></path>
                <path d="M506.34,474.68 C514.15,478.466801 522.162063,481.821852 530.34,484.73 C532.7,485.576667 535.076667,486.376667 537.47,487.13 C533.47,485.97 529.503333,484.796667 525.57,483.61 C515.23,480.47 505.05,477.13 495.08,473.42 L497.45,470.2 C500.39,471.753333 503.353333,473.246667 506.34,474.68 L506.34,474.68 Z" id="Shape" fill="#F2F2F2"></path>
                <path d="M497.48,470.2 L495.11,473.42 C489.443333,471.306667 483.836667,469.073333 478.29,466.72 C473.67,464.76 469.103333,462.71 464.59,460.57 L469.51,453.06 C474.06,456.27 478.74,459.34 483.51,462.26 C488.08,465.03 492.74,467.69 497.48,470.2 L497.48,470.2 Z" id="Shape" fill="#F2F2F2"></path>
                <path d="M495.11,473.42 L481.91,491.32 C472.733386,486.297702 463.84911,480.758802 455.3,474.73 L464.59,460.55 C469.11,462.69 473.676667,464.74 478.29,466.7 C483.83,469.073333 489.436667,471.313333 495.11,473.42 L495.11,473.42 Z" id="Shape" fill="#FFFFFF"></path>
                <path d="M495.1,498.09 C503.776336,502.246342 512.669074,505.934959 521.74,509.14 C522.4,509.37 523.06,509.61 523.74,509.82 C521.85,509.25 519.97,508.66 518.08,508.07 C505.17,504.07 492.26,499.6 479.58,494.53 L481.93,491.34 C486.236667,493.713333 490.626667,495.963333 495.1,498.09 L495.1,498.09 Z" id="Shape" fill="#FFFFFF"></path>
                <path d="M481.91,491.32 L479.56,494.51 C475.8,493.003333 472.063333,491.44 468.35,489.82 C462.41,487.24 456.546667,484.52 450.76,481.66 L455.3,474.73 C463.84911,480.758802 472.733386,486.297702 481.91,491.32 L481.91,491.32 Z" id="Shape" fill="#FFFFFF"></path>
                <path d="M479.56,494.53 L277.38,769.05 C274.13,766.39 270.8,763.85 267.38,761.46 L450.76,481.68 C456.54,484.54 462.403333,487.26 468.35,489.84 C472.063333,491.493333 475.8,493.056667 479.56,494.53 L479.56,494.53 Z" id="Shape" fill="#6B6B6B"></path>
                <path d="M464.59,460.57 L455.3,474.75 C452.32,472.65 449.376667,470.493333 446.47,468.28 C431.421722,456.812808 417.694168,443.709081 405.54,429.21 C403.38,426.623333 401.28,423.99 399.24,421.31 C400.46,422.25 401.69,423.173333 402.93,424.08 L408.02,427.67 C409.78,428.93 411.42,429.99 413.12,431.15 C419.88,435.71 426.9,440.15 434,444.36 C444,450.19 454.14,455.62 464.59,460.57 L464.59,460.57 Z" id="Shape" fill="#FFFFFF"></path>
                <path d="M407.54,904.32 C413.027741,908.083291 418.701599,911.567708 424.54,914.76 C415.081245,911.096113 405.900521,906.751395 397.07,901.76 C384.76412,894.704046 372.965478,886.798187 361.76,878.1 C350.76,869.76 340.56,861.2 330.55,852.99 L329.55,852.2 L329.13,851.67 C319.73,839.67 310.85,827.74 301.84,816.49 C298.54,812.32 295.2,808.32 291.8,804.32 C298.04,808.15 304.21,812.25 310.35,816.54 C320.7,823.77 330.9,831.54 341.14,839.54 L342.37,841.04 C351.89,852.64 361.79,864.04 372.5,874.85 C383.226873,885.753806 394.958892,895.62089 407.54,904.32 L407.54,904.32 Z" id="Shape" fill="#FFFFFF"></path>
                <path d="M329.16,851.69 L329.58,852.22 C319.91,844.28 310.45,836.67 300.95,829.65 C291.44346,822.565666 281.566119,815.993012 271.36,809.96 C266.386667,807.04 261.386667,804.316667 256.36,801.79 L254.07,800.64 L262.86,788.71 C268.19,791.19 273.49,793.9 278.78,796.8 C283.14,799.173333 287.473333,801.69 291.78,804.35 C295.18,808.29 298.52,812.35 301.85,816.51 C310.88,827.76 319.76,839.67 329.16,851.69 L329.16,851.69 Z" id="Shape" fill="#FFFFFF"></path>
                <path d="M314.1,806.45 C323.23,817.28 332.05,828.45 341.1,839.6 C330.86,831.6 320.66,823.8 310.31,816.6 C304.21,812.32 298,808.18 291.8,804.32 C286.158377,797.678666 280.173549,791.336685 273.87,785.32 C272.2,783.74 270.5,782.19 268.78,780.69 L277.38,769.01 C279.56,770.79 281.7,772.63 283.8,774.51 C294.645338,784.423956 304.770945,795.097616 314.1,806.45 L314.1,806.45 Z" id="Shape" fill="#F2F2F2"></path>
                <path d="M277.38,769.05 L268.78,780.73 C265.78,778.12 262.78,775.63 259.64,773.29 L267.39,761.46 C270.8,763.85 274.13,766.39 277.38,769.05 L277.38,769.05 Z" id="Shape" fill="#F2F2F2"></path>
                <path d="M268.78,780.73 L262.9,788.73 L262.77,788.67 L254.86,785.13 L252.54,784.13 L259.64,773.3 C262.75,775.63 265.8,778.12 268.78,780.73 L268.78,780.73 Z" id="Shape" fill="#6B6B6B"></path>
                <polygon id="Shape" fill="#FFFFFF" points="262.9 788.71 254.11 800.64 248.79 797.99 244.72 796.05 252.54 784.12 254.86 785.12 262.77 788.66"></polygon>
                <polygon id="Shape" fill="#6B6B6B" points="254.11 800.64 141.62 953.37 244.72 796.05 248.79 797.99"></polygon>
                <path d="M42.07,812.2 C52.8260616,798.028874 65.7438716,785.637495 80.35,775.48 C81.42,774.74 82.51,774.01 83.62,773.28 C90.572489,769.368882 97.9288869,766.223804 105.56,763.9 C113.419861,761.510613 121.489754,759.876544 129.66,759.02 C133.94,758.546667 138.333333,758.276667 142.84,758.21 C147.34,758.09 151.93,758.21 156.61,758.51 C166.3233,759.137053 175.982439,760.42672 185.52,762.37 C195.724749,764.472209 205.811989,767.109178 215.74,770.27 C225.99,773.49 236.39,777.34 246.91,781.71 C248.78,782.5 250.65,783.31 252.54,784.12 L244.72,796.05 L241.31,794.41 C231.31,789.743333 221.446667,785.613333 211.72,782.02 C192.3,774.83 173.47,770.02 155.79,767.92 C138.11,765.82 121.63,766.76 107.32,770.27 C94.489969,773.378039 82.3343978,778.800095 71.45,786.27 C63.321365,791.885833 55.7977043,798.330376 49,805.5 C46.2,808.41 43.78,811.06 41.69,813.34 L39.18,816.04 C40.1266667,814.76 41.09,813.48 42.07,812.2 L42.07,812.2 Z" id="Shape" fill="#FFFFFF"></path>
                <path d="M36.35,819.01 C35.2349382,820.14488 34.0634559,821.222911 32.84,822.24 C32.11,822.83 31.69,823.14 31.59,823.24 C31.68,823.16 32.09,822.81 32.76,822.17 C33.43,821.53 34.61,820.28 35.97,818.69 C38.69,815.51 42.4,810.52 47.62,804.25 C54.0066111,796.44525 61.188684,789.326854 69.05,783.01 C73.6514702,779.411811 78.5224566,776.172287 83.62,773.32 C82.51,774.05 81.42,774.78 80.35,775.52 C65.7438716,785.677495 52.8260616,798.068874 42.07,812.24 C41.09,813.52 40.14,814.8 39.22,816.08 C38.16,817.16 37.2,818.16 36.35,819.01 L36.35,819.01 Z" id="Shape" fill="#FFFFFF"></path>
                <path d="M39.22,816.04 C31.6991338,826.454383 25.138897,837.529803 19.62,849.13 C15.0178289,858.82007 11.0559968,868.801482 7.76,879.01 C5.07,887.34 3.35,893.85 2.26,898.25 C1.72,900.44 1.33,902.12 1.07,903.25 C0.88,904.09 0.76,904.63 0.71,904.84 C0.71,904.63 0.83,904.09 0.98,903.23 C1.17,902.1 1.46,900.4 1.88,898.17 C2.74,893.72 4.04,887.1 6.35,878.6 C9.15826322,868.141406 12.6524965,857.879184 16.81,847.88 C22.4421647,834.262059 29.5193434,821.28779 37.92,809.18 C48.4166353,793.990447 61.2718733,780.574818 76,769.44 C93.5748434,756.299193 113.58565,746.781569 134.87,741.44 C146.602783,738.476266 158.589413,736.628048 170.67,735.92 C183.551123,735.016948 196.493016,735.57045 209.25,737.57 C222.869755,739.736009 236.080834,743.960991 248.43,750.1 C255.024915,753.39052 261.359871,757.178122 267.38,761.43 L259.64,773.32 C254.14356,769.157636 248.329056,765.432876 242.25,762.18 C231.218082,756.310692 219.370358,752.124383 207.1,749.76 C195.271277,747.527369 183.228598,746.635071 171.2,747.1 C159.769155,747.404236 148.389347,748.743037 137.2,751.1 C118.133034,755.172827 99.9733692,762.703767 83.62,773.32 C78.5221263,776.175494 73.6511308,779.418367 69.05,783.02 C61.1907266,789.32429 54.0087263,796.429209 47.62,804.22 C42.4,810.49 38.69,815.48 35.97,818.66 C34.61,820.25 33.53,821.41 32.76,822.14 C31.99,822.87 31.68,823.14 31.59,823.21 C31.69,823.14 32.11,822.83 32.84,822.21 C34.0634559,821.192911 35.2349382,820.11488 36.35,818.98 C37.2,818.16 38.16,817.16 39.22,816.04 L39.22,816.04 Z" id="Shape" fill="#F2F2F2"></path>
                <path d="M497.48,470.2 L752.62,123.79" id="Shape" stroke="#DBDBDB" stroke-width="0.25"></path>
                <path d="M277.38,769.05 L479.56,494.53" id="Shape" stroke="#DBDBDB" stroke-width="0.25"></path>
                <path d="M262.9,788.71 L268.78,780.73" id="Shape" stroke="#DBDBDB" stroke-width="0.25"></path>
                <polyline id="Shape" stroke="#DBDBDB" stroke-width="0.25" points="244.72 796.05 141.62 953.37 254.11 800.64"></polyline>
                <path d="M259.64,773.29 L252.54,784.12" id="Shape" stroke="#DBDBDB" stroke-width="0.25"></path>
                <path d="M450.76,481.68 L267.39,761.46" id="Shape" stroke="#DBDBDB" stroke-width="0.25"></path>
                <path d="M688.41,119.05 L469.51,453.06" id="Shape" stroke="#DBDBDB" stroke-width="0.25"></path>
                <path d="M695.77,107.83 L694.62,109.58" id="Shape" stroke="#DBDBDB" stroke-width="0.25"></path>
                <path d="M761.84,111.32 L766.57,104.9 C772.97,96.21 769.57,83.03 759.05,75.72 L749.24,68.9 C738.72,61.58 725.24,62.99 719.24,72.02 L701.83,98.58" id="Shape" stroke="#DBDBDB" stroke-width="0.25"></path>
                <path d="M714.83,113.69 L715.69,112.44" id="Shape" stroke="#DBDBDB" stroke-width="0.25"></path>
                <path d="M728.68,124.8 L702.21,163.32 C700.949051,165.128782 698.46218,165.576061 696.65,164.32 L688.65,158.82 C686.841218,157.559051 686.393939,155.07218 687.65,153.26 L708.65,122.66" id="Shape" stroke="#DBDBDB" stroke-width="0.25"></path>
                <path d="M721.32,104.26 L735.7,83.32 C736.960949,81.5112184 739.44782,81.0639393 741.26,82.32 L749.26,87.82 C751.068782,89.080949 751.516061,91.5678204 750.26,93.38 L739.76,108.66" id="Shape" stroke="#DBDBDB" stroke-width="0.25"></path>
            </g>
        </g>
    </g>
</svg>